<svg xmlns="http://www.w3.org/2000/svg" viewBox="0 0 512 512"><defs><radialGradient id="sky" cx="50%" cy="40%" r="60%"><stop offset="0%" stop-color="#1e2a4a"/><stop offset="60%" stop-color="#0a0e1a"/><stop offset="100%" stop-color="#000"/></radialGradient><linearGradient id="ridge" x1="0" x2="0" y1="1" y2="0"><stop offset="0%" stop-color="#0a0e1a"/><stop offset="100%" stop-color="#1e293b"/></linearGradient><radialGradient id="glow" cx="50%" cy="40%" r="50%"><stop offset="0%" stop-color="#a5b4fc" stop-opacity=".6"/><stop offset="100%" stop-color="#a5b4fc" stop-opacity="0"/></radialGradient></defs><rect width="512" height="512" fill="url(#sky)" rx="96"/><circle cx="256" cy="200" r="160" fill="url(#glow)"/><g fill="#f1f5f9"><circle cx="120" cy="120" r="3"/><circle cx="180" cy="80" r="2"/><circle cx="320" cy="100" r="2.5"/><circle cx="400" cy="160" r="3"/><circle cx="380" cy="240" r="2"/><circle cx="140" cy="200" r="2"/><circle cx="240" cy="60" r="2"/><circle cx="60" cy="180" r="2.5"/><circle cx="430" cy="80" r="2"/></g><g fill="#a5b4fc"><path d="M0 -40 L8 -8 L40 0 L8 8 L0 40 L-8 8 L-40 0 L-8 -8 Z" transform="translate(256 180)"/></g><path fill="url(#ridge)" d="M0 360 L96 280 L160 320 L224 240 L304 320 L368 260 L448 320 L512 290 L512 512 L0 512 Z"/><g transform="translate(420 100)"><circle r="22" fill="#f7dc6f" fill-opacity=".9"/><circle cx="-7" r="22" fill="#0a0e1a"/></g></svg>